<svg width="901" height="240" viewBox="0 0 901 240" fill="none" xmlns="http://www.w3.org/2000/svg">
<path d="M833.599 239.997C823.158 239.971 812.758 238.691 802.623 236.184C792.356 233.68 782.582 229.471 773.707 223.733C769.617 221.312 767.607 218.133 767.716 214.277C767.709 212.498 768.124 210.743 768.927 209.156C769.73 207.569 770.899 206.196 772.336 205.148C773.789 204.052 775.564 203.467 777.384 203.484C779.565 203.563 781.701 204.132 783.633 205.148C791.667 210.081 800.371 213.827 809.476 216.271C817.586 218.337 825.919 219.394 834.288 219.42C847.24 219.42 857.142 217.074 863.72 212.448C866.845 210.396 869.396 207.583 871.133 204.272C872.87 200.962 873.735 197.263 873.646 193.526C873.646 187.365 871.458 182.395 867.146 178.753C862.834 175.111 855.922 172.273 846.609 170.288L815.461 163.653C801.381 160.676 790.673 155.594 783.636 148.547C776.599 141.5 773.025 132.287 773.025 121.166C773.025 106.631 779.072 94.792 790.996 85.979C802.92 77.166 818.739 72.704 838.048 72.704C847.647 72.6803 857.204 73.9634 866.457 76.518C875.364 78.964 883.728 83.0733 891.107 88.629C894.971 91.278 896.697 94.518 896.24 98.259C896.065 100.028 895.498 101.736 894.58 103.258C893.663 104.78 892.417 106.079 890.934 107.059C889.63 107.965 888.078 108.45 886.49 108.447C884.102 108.331 881.793 107.561 879.813 106.221C873.355 101.983 866.325 98.6885 858.936 96.437C852.163 94.3811 845.128 93.317 838.05 93.278C825.338 93.278 815.55 95.734 808.955 100.578C802.36 105.422 799.029 111.915 799.029 119.838C799.029 132.167 807.551 140.208 824.362 143.738L855.51 150.046C870.059 153.134 881.227 158.104 888.703 164.819C896.203 171.531 900.003 180.742 900.003 192.196C900.003 206.964 893.903 218.747 881.868 227.22C869.833 235.693 853.599 239.997 833.599 239.997ZM688.299 239.997C675.236 239.997 663.376 238.113 653.043 234.397C642.924 230.812 633.702 225.078 626.011 217.588C618.4 210.153 612.526 201.128 608.807 191.159C605.001 181.052 603.071 169.452 603.071 156.68C603.071 140.156 606.528 125.36 613.345 112.701C619.804 100.403 629.588 90.1658 641.581 83.157C653.507 76.218 667.501 72.704 683.169 72.704C705.66 72.704 723.511 79.797 736.226 93.783C748.941 107.769 755.401 127.248 755.401 151.701C755.401 158.532 751.37 161.996 743.419 161.996H630.119C631.027 180.27 636.55 194.396 646.54 203.982C656.53 213.568 670.593 218.427 688.3 218.427C696.029 218.399 703.726 217.452 711.231 215.605C719.297 213.579 726.944 210.15 733.822 205.474C737.094 203.412 740.071 202.366 742.67 202.366C744.185 202.357 745.677 202.742 746.999 203.483C748.665 204.352 750.058 205.665 751.025 207.275C751.992 208.886 752.496 210.733 752.48 212.612C752.591 216.692 750.227 220.324 745.455 223.412C737.27 229.017 728.181 233.17 718.587 235.69C708.732 238.486 698.545 239.935 688.301 239.997H688.299ZM683.855 92.613C668.19 92.613 655.636 97.413 646.543 106.884C637.45 116.355 632.043 128.984 630.462 144.402H731.432C730.749 128.102 726.32 115.259 718.254 106.219C710.188 97.179 698.607 92.613 683.855 92.613ZM407.643 239.997C391.509 239.997 377.343 236.537 365.535 229.712C353.735 222.896 344.164 212.804 337.984 200.659C331.512 188.218 328.231 173.312 328.231 156.353C328.231 139.394 331.512 124.477 337.984 112.036C344.171 99.8951 353.74 89.8049 365.536 82.984C377.342 76.16 391.507 72.704 407.643 72.704C423.543 72.704 437.649 76.164 449.567 82.988C461.439 89.7681 471.074 99.8651 477.291 112.041C483.763 124.481 487.044 139.391 487.044 156.358C487.044 173.325 483.763 188.224 477.291 200.664C471.079 212.843 461.443 222.94 449.567 229.714C437.646 236.537 423.539 239.997 407.643 239.997ZM407.643 94.269C391.966 94.269 379.354 99.631 370.164 110.207C360.964 120.767 356.304 136.292 356.304 156.353C356.304 176.187 360.968 191.653 370.164 202.326C379.36 212.999 391.964 218.426 407.643 218.426C423.085 218.426 435.636 213.009 444.943 202.326C454.25 191.643 458.979 176.171 458.979 156.353C458.979 136.309 454.256 120.782 444.943 110.207C435.63 99.632 423.082 94.269 407.643 94.269ZM90.689 239.997C75.0416 240.087 59.4493 238.135 44.307 234.19C29.884 230.332 17.275 224.581 6.83002 217.097C3.20002 214.678 1.01202 211.771 0.330017 208.458C-0.371817 205.315 0.0529227 202.026 1.53002 199.165C2.19924 197.801 3.13478 196.584 4.28151 195.587C5.42824 194.59 6.76296 193.832 8.20702 193.359C9.07777 193.07 9.98959 192.924 10.907 192.927C13.6241 193.068 16.2478 193.965 18.483 195.516C28.4102 202.645 39.5397 207.93 51.339 211.116C64.2026 214.357 77.4314 215.92 90.696 215.767C111.133 215.767 126.508 212.025 136.396 204.644C146.284 197.263 151.279 187.385 151.279 175.264C151.279 165.564 147.655 157.75 140.507 152.027C133.359 146.304 121.197 141.727 104.387 138.42L68.787 131.448C47.438 127.048 31.261 119.727 20.699 109.704C10.137 99.681 4.77702 86.114 4.77702 69.377C4.77702 55.507 8.51802 43.221 15.898 32.861C23.278 22.501 33.707 14.361 46.874 8.63196C60.041 2.90296 75.475 0.00396464 92.743 0.00396464C106.365 -0.0987688 119.925 1.85903 132.962 5.81096C145.149 9.56604 156.567 15.4688 166.677 23.241C169.859 25.667 171.76 28.515 172.331 31.706C172.922 34.7267 172.372 37.8592 170.787 40.498C170.05 41.7718 169.063 42.8838 167.886 43.7675C166.709 44.6512 165.366 45.2884 163.937 45.641C163.201 45.8306 162.444 45.9254 161.684 45.923C158.703 45.7545 155.819 44.8002 153.326 43.157C144.761 36.5958 135.076 31.6457 124.741 28.548C114.219 25.5979 103.334 24.1449 92.407 24.232C74.463 24.232 59.952 28.308 49.276 36.347C38.6 44.386 33.186 55.167 33.186 68.385C33.186 78.945 36.586 87.433 43.286 93.615C49.974 99.773 61.086 104.351 76.318 107.222L111.918 114.522C134.301 119.04 151.234 125.9 162.253 134.91C161.059 141.692 160.475 148.568 160.507 155.454C160.507 172.381 163.791 187.384 170.272 200.047C170.872 201.214 171.497 202.365 172.132 203.468C171.14 205.186 170.062 206.852 168.901 208.46C161.773 218.366 151.411 226.183 138.101 231.696C124.82 237.204 108.871 239.997 90.689 239.997ZM524.867 239.332C515.554 239.332 510.831 234.644 510.831 225.398V86.971C510.831 77.942 515.322 73.364 524.182 73.364C533.267 73.364 537.872 77.942 537.872 86.971V104.564C542.21 94.6617 549.662 86.4457 559.095 81.164C568.625 75.771 580.142 72.81 593.32 72.364C593.894 72.312 594.457 72.285 594.987 72.285C601.187 72.285 604.544 75.885 604.954 82.985C605.648 90.694 601.506 95.052 592.638 95.938L587.157 96.602C571.486 97.925 559.395 102.782 551.224 111.037C543.053 119.292 538.905 130.737 538.905 145.069V225.398C538.907 234.644 534.181 239.332 524.867 239.332Z" fill="#232328"/>
<path d="M259.683 239.997C242.942 239.997 228.495 236.528 216.341 229.591C204.3 222.772 194.546 212.543 188.307 200.191C181.774 187.524 178.507 172.713 178.507 155.758C178.507 130.211 185.731 110.114 200.178 95.468C214.625 80.822 234.46 73.499 259.683 73.499C268.417 73.5686 277.1 74.8474 285.483 77.299C294.354 79.795 302.651 84.0035 309.906 89.687C313.805 92.3297 315.467 95.6334 314.894 99.598C314.686 101.439 314.049 103.205 313.033 104.755C312.017 106.304 310.651 107.593 309.046 108.518C305.721 110.5 301.88 110.06 297.523 107.197C291.953 103.102 285.733 99.9746 279.123 97.947C273.371 96.2325 267.405 95.3423 261.403 95.303C243.975 95.303 230.56 100.534 221.157 110.995C211.754 121.456 207.054 136.487 207.057 156.088C207.057 175.249 211.757 190.39 221.157 201.512C230.557 212.634 243.972 218.195 261.403 218.195C267.403 218.156 273.368 217.266 279.118 215.552C285.728 213.524 291.948 210.397 297.518 206.302C301.875 203.435 305.659 203.05 308.869 205.146C310.42 206.123 311.713 207.458 312.641 209.039C313.569 210.62 314.104 212.401 314.201 214.231C314.545 218.195 312.882 221.388 309.213 223.811C302.054 229.445 293.88 233.65 285.134 236.199C276.873 238.665 268.304 239.944 259.683 239.999V239.997Z" fill="#232328"/>
<path d="M415.989 178.806C416.628 178.962 417.179 179.362 417.526 179.921C417.872 180.479 417.986 181.152 417.841 181.793L414.835 203.183C414.797 203.839 414.503 204.454 414.016 204.895C413.529 205.337 412.888 205.569 412.231 205.543C411.593 205.387 411.041 204.987 410.694 204.429C410.348 203.87 410.235 203.198 410.379 202.556L413.385 181.167C413.423 180.51 413.717 179.895 414.204 179.454C414.691 179.012 415.332 178.78 415.989 178.806V178.806Z" fill="url(#paint0_linear_4_16)"/>
<path d="M405.481 174.411C407.122 174.642 408.228 176.427 407.951 178.393L403.943 206.913C403.667 208.88 402.112 210.291 400.471 210.061C398.83 209.83 397.725 208.045 398.001 206.078L402.01 177.558C402.286 175.592 403.84 174.18 405.481 174.411Z" fill="url(#paint1_linear_4_16)"/>
<path d="M393.26 180.308C393.552 180.35 393.834 180.448 394.089 180.598C394.344 180.749 394.566 180.948 394.744 181.184C394.922 181.42 395.051 181.689 395.125 181.975C395.199 182.262 395.216 182.56 395.174 182.853L392.67 200.671C392.587 201.262 392.272 201.796 391.796 202.155C391.319 202.514 390.72 202.669 390.129 202.586C389.538 202.503 389.004 202.189 388.645 201.712C388.286 201.236 388.131 200.636 388.214 200.045L390.718 182.226C390.759 181.933 390.857 181.652 391.007 181.397C391.157 181.142 391.355 180.919 391.591 180.741C391.828 180.563 392.096 180.433 392.383 180.359C392.669 180.284 392.967 180.267 393.26 180.308V180.308Z" fill="url(#paint2_linear_4_16)"/>
<path d="M413.637 103.944C413.8 103.747 414.011 103.594 414.25 103.502C414.489 103.409 414.748 103.379 415.001 103.415C415.255 103.451 415.495 103.551 415.699 103.706C415.903 103.86 416.064 104.065 416.167 104.3L425.641 125.988C425.799 126.351 426.096 126.637 426.464 126.783L448.493 135.481C448.732 135.575 448.942 135.729 449.104 135.928C449.267 136.126 449.375 136.363 449.42 136.616C449.464 136.869 449.443 137.128 449.359 137.371C449.274 137.613 449.129 137.829 448.937 137.999L431.222 153.687C430.925 153.95 430.744 154.32 430.72 154.717L429.249 178.327C429.232 178.582 429.151 178.829 429.012 179.044C428.873 179.259 428.681 179.435 428.455 179.555C428.229 179.675 427.976 179.736 427.72 179.73C427.464 179.725 427.214 179.654 426.993 179.524L406.57 167.535C406.228 167.335 405.821 167.278 405.437 167.376L382.5 173.271C382.252 173.335 381.992 173.334 381.745 173.269C381.497 173.203 381.27 173.076 381.086 172.898C380.902 172.72 380.766 172.498 380.692 172.253C380.618 172.008 380.608 171.748 380.662 171.498L385.756 148.401C385.842 148.013 385.771 147.607 385.558 147.272L372.853 127.31C372.715 127.093 372.635 126.845 372.621 126.589C372.606 126.333 372.658 126.077 372.77 125.847C372.883 125.616 373.052 125.418 373.263 125.272C373.474 125.126 373.719 125.036 373.974 125.011L397.545 122.718C397.94 122.68 398.303 122.487 398.556 122.182L413.637 103.944Z" fill="url(#paint3_linear_4_16)"/>
<path d="M421.758 159.538C424.766 159.961 427.547 157.865 427.97 154.857C428.392 151.849 426.297 149.068 423.289 148.645C420.281 148.223 417.499 150.318 417.077 153.326C416.654 156.334 418.75 159.116 421.758 159.538Z" fill="#FF7819"/>
<path d="M392.545 155.433C395.279 155.817 397.839 153.69 398.261 150.682C398.684 147.674 396.81 144.924 394.076 144.54C391.341 144.156 388.782 146.282 388.359 149.29C387.936 152.298 389.81 155.048 392.545 155.433Z" fill="#FF7819"/>
<path d="M400.875 150.039C400.875 150.039 402.24 154.27 407.746 155.044C413.252 155.817 415.73 152.126 415.73 152.126" stroke="black" stroke-width="1.5" stroke-linecap="round" stroke-linejoin="round"/>
<path d="M424.835 144.822C427.296 145.168 429.571 143.454 429.917 140.992C430.263 138.531 428.548 136.256 426.087 135.91C423.626 135.564 421.351 137.279 421.005 139.74C420.659 142.201 422.374 144.476 424.835 144.822Z" fill="black"/>
<path d="M425.426 140.614C426.246 140.729 427.005 140.157 427.12 139.337C427.236 138.517 426.664 137.758 425.844 137.643C425.023 137.528 424.265 138.099 424.149 138.92C424.034 139.74 424.606 140.498 425.426 140.614Z" fill="#FAFAFA"/>
<path d="M431.781 135.736C431.472 134.939 430.979 134.224 430.343 133.652C429.707 133.08 428.945 132.665 428.119 132.442C427.32 132.137 426.46 132.024 425.608 132.112C424.757 132.201 423.939 132.489 423.22 132.952" stroke="black" stroke-width="1.00025" stroke-linecap="round" stroke-linejoin="round"/>
<path d="M394.137 140.508C396.598 140.854 398.874 139.139 399.22 136.678C399.566 134.217 397.851 131.942 395.39 131.596C392.929 131.25 390.653 132.965 390.307 135.426C389.961 137.887 391.676 140.162 394.137 140.508Z" fill="black"/>
<path d="M394.728 136.3C395.548 136.416 396.307 135.844 396.422 135.024C396.537 134.203 395.966 133.445 395.145 133.33C394.325 133.214 393.566 133.786 393.451 134.606C393.336 135.427 393.907 136.185 394.728 136.3Z" fill="#FAFAFA"/>
<path d="M398.973 129.541C398.409 128.897 397.702 128.395 396.908 128.076C396.114 127.756 395.257 127.627 394.404 127.7C393.549 127.688 392.702 127.876 391.933 128.251C391.163 128.626 390.493 129.176 389.976 129.858" stroke="black" stroke-width="1.00025" stroke-linecap="round" stroke-linejoin="round"/>
<defs>
<linearGradient id="paint0_linear_4_16" x1="415.989" y1="178.806" x2="412.231" y2="205.543" gradientUnits="userSpaceOnUse">
<stop stop-color="#FFBE19"/>
<stop offset="1" stop-color="#FF7819"/>
</linearGradient>
<linearGradient id="paint1_linear_4_16" x1="405.481" y1="174.411" x2="400.471" y2="210.061" gradientUnits="userSpaceOnUse">
<stop stop-color="#FFBE19"/>
<stop offset="1" stop-color="#FF7819"/>
</linearGradient>
<linearGradient id="paint2_linear_4_16" x1="393.26" y1="180.308" x2="390.129" y2="202.586" gradientUnits="userSpaceOnUse">
<stop stop-color="#FFBE19"/>
<stop offset="1" stop-color="#FF7819"/>
</linearGradient>
<linearGradient id="paint3_linear_4_16" x1="415.004" y1="103.415" x2="404.731" y2="176.51" gradientUnits="userSpaceOnUse">
<stop stop-color="#FFBE19"/>
<stop offset="1" stop-color="#FF7819"/>
</linearGradient>
</defs>
</svg>
